# xmcd CD database file
#
# Track frame offsets:
#	150
#	16220
#	40370
#	51195
#	67727
#	88672
#	119335
#	138077
#	155970
#	174015
#	195187
#
# Disc length: 2860 seconds
#
# Revision: 7
# Processed by: cddbd v1.5.2PL0 Copyright (c) Steve Scherf et al.
# Submitted via: CDex 1.51
#
DISCID=840b2a0b
DTITLE=Stevie Ray Vaughan And Double Trouble - Greatest Hits
DYEAR=1900
DGENRE=Blues
TTITLE0=Taxman
TTITLE1=Texas Flood
TTITLE2=The House Is Rockin'
TTITLE3=Pride And Joy
TTITLE4=Tightrope
TTITLE5=Little Wing
TTITLE6=Crossfire
TTITLE7=Change It
TTITLE8=Cold Shot
TTITLE9=Couldn't Stand The Weather
TTITLE10=Life Without You
EXTD=
EXTT0=
EXTT1=
EXTT2=
EXTT3=
EXTT4=
EXTT5=
EXTT6=
EXTT7=
EXTT8=
EXTT9=
EXTT10=
PLAYORDER=
